HIERARCHY
ROOT Hips
{
	OFFSET 0.000000 0.000000 0.000000
	CHANNELS 6 Xposition Yposition Zposition Zrotation Yrotation Xrotation 
	JOINT LHipJoint
	{
		OFFSET 0.000000 0.000000 0.000000
		CHANNELS 3 Zrotation Yrotation Xrotation
		JOINT LeftUpLeg
		{
			OFFSET 1.363060 -1.794630 0.839290
			CHANNELS 3 Zrotation Yrotation Xrotation
			JOINT LeftLeg
			{
				OFFSET 2.448110 -6.726130 0.000000
				CHANNELS 3 Zrotation Yrotation Xrotation
				JOINT LeftFoot
				{
					OFFSET 2.562200 -7.039590 0.000000
					CHANNELS 3 Zrotation Yrotation Xrotation
					JOINT LeftToeBase
					{
						OFFSET 0.157640 -0.433110 2.322550
						CHANNELS 3 Zrotation Yrotation Xrotation
						End Site
						{
							OFFSET 0.000000 0.000000 0.000000
						}
					}
				}
			}
		}
	}
	JOINT RHipJoint
	{
		OFFSET 0.000000 0.000000 0.000000
		CHANNELS 3 Zrotation Yrotation Xrotation
		JOINT RightUpLeg
		{
			OFFSET -1.305520 -1.794630 0.839290
			CHANNELS 3 Zrotation Yrotation Xrotation
			JOINT RightLeg
			{
				OFFSET -2.542530 -6.985550 0.000000
				CHANNELS 3 Zrotation Yrotation Xrotation
				JOINT RightFoot
				{
					OFFSET -2.568260 -7.056230 0.000000
					CHANNELS 3 Zrotation Yrotation Xrotation
					JOINT RightToeBase
					{
						OFFSET -0.164730 -0.452590 2.363150
						CHANNELS 3 Zrotation Yrotation Xrotation
						End Site
						{
							OFFSET 0.000000 0.000000 0.000000
						}
					}
				}
			}
		}
	}
	JOINT LowerBack
	{
		OFFSET 0.000000 0.000000 0.000000
		CHANNELS 3 Zrotation Yrotation Xrotation
		JOINT Spine
		{
			OFFSET 0.028270 2.035590 -0.193380
			CHANNELS 3 Zrotation Yrotation Xrotation
			JOINT Spine1
			{
				OFFSET 0.056720 2.048850 -0.042750
				CHANNELS 3 Zrotation Yrotation Xrotation
				JOINT Neck
				{
					OFFSET 0.000000 0.000000 0.000000
					CHANNELS 3 Zrotation Yrotation Xrotation
					JOINT Neck1
					{
						OFFSET -0.054170 1.746240 0.172020
						CHANNELS 3 Zrotation Yrotation Xrotation
						JOINT Head
						{
							OFFSET 0.104070 1.761360 -0.123970
							CHANNELS 3 Zrotation Yrotation Xrotation
							End Site
							{
								OFFSET 0.000000 0.000000 0.000000
							}
						}
					}
				}
				JOINT LeftShoulder
				{
					OFFSET 0.000000 0.000000 0.000000
					CHANNELS 3 Zrotation Yrotation Xrotation
					JOINT LeftArm
					{
						OFFSET 3.362410 1.200890 -0.311210
						CHANNELS 3 Zrotation Yrotation Xrotation
						JOINT LeftForeArm
						{
							OFFSET 4.983000 -0.000000 -0.000000
							CHANNELS 3 Zrotation Yrotation Xrotation
							JOINT LeftHand
							{
								OFFSET 3.483560 -0.000000 -0.000000
								CHANNELS 3 Zrotation Yrotation Xrotation
								JOINT LeftFingerBase
								{
									OFFSET 0.000000 0.000000 0.000000
									CHANNELS 3 Zrotation Yrotation Xrotation
									JOINT LeftHandIndex1
									{
										OFFSET 0.715260 -0.000000 -0.000000
										CHANNELS 3 Zrotation Yrotation Xrotation
										End Site
										{
											OFFSET 0.000000 0.000000 0.000000
										}
									}
								}
								JOINT LThumb
								{
									OFFSET 0.000000 0.000000 0.000000
									CHANNELS 3 Zrotation Yrotation Xrotation
									End Site
									{
										OFFSET 0.000000 0.000000 0.000000
									}
								}
							}
						}
					}
				}
				JOINT RightShoulder
				{
					OFFSET 0.000000 0.000000 0.000000
					CHANNELS 3 Zrotation Yrotation Xrotation
					JOINT RightArm
					{
						OFFSET -3.136600 1.374050 -0.404650
						CHANNELS 3 Zrotation Yrotation Xrotation
						JOINT RightForeArm
						{
							OFFSET -5.241900 -0.000000 -0.000000
							CHANNELS 3 Zrotation Yrotation Xrotation
							JOINT RightHand
							{
								OFFSET -3.444170 -0.000000 -0.000000
								CHANNELS 3 Zrotation Yrotation Xrotation
								JOINT RightFingerBase
								{
									OFFSET 0.000000 0.000000 0.000000
									CHANNELS 3 Zrotation Yrotation Xrotation
									JOINT RightHandIndex1
									{
										OFFSET -0.622530 -0.000000 -0.000000
										CHANNELS 3 Zrotation Yrotation Xrotation
										End Site
										{
											OFFSET 0.000000 0.000000 0.000000
										}
									}
								}
								JOINT RThumb
								{
									OFFSET 0.000000 0.000000 0.000000
									CHANNELS 3 Zrotation Yrotation Xrotation
									End Site
									{
										OFFSET 0.000000 0.000000 0.000000
									}
								}
							}
						}
					}
				}
			}
		}
	}
}
MOTION
Frames: 7
Frame Time: 0.033333
-0.109606 14.827303 57.050964 90.307250 -9.080034 -54.663501 -75.548193 -51.472164 37.063776 -6.674946 1.478258 -59.036789 -76.529793 67.732264 -45.437530 -8.511541 43.060522 -50.799631 -0.189049 -0.192212 52.159902 38.918813 3.217257 -95.064190 54.106765 -37.857743 -111.865337 95.361833 -38.561975 -68.357161 88.183732 34.110971 -25.299790 6.641178 -0.446116 -37.287135 -137.249322 79.728325 -57.473927 177.976283 66.864646 172.414707 132.005154 76.994154 133.118684 -18.207366 -49.851650 9.823373 -6.332212 -39.582925 1.679005 0.589820 -0.332000 0.421081 94.275919 60.181860 18.498784 165.765455 48.872253 121.422089 -38.678303 -4.839427 -82.379399 84.161242 -33.086577 33.507454 -76.540892 -59.136047 -3.764426 -0.529601 -0.441172 0.450491 0.497389 0.502214 -0.578207 54.571632 55.923781 80.907196 41.257096 23.371179 151.424397 25.045921 -55.540839 62.583445 48.671034 9.243049 19.241909 90.431506 34.600484 127.529249 -0.619611 0.565872 -0.602509 -0.486231 -0.609329 -0.308682 
-0.114219 14.825567 57.053444 90.578962 -9.145453 -54.629583 -75.448637 -51.283836 36.792681 -6.700571 1.410320 -58.985115 -77.472926 67.745175 -46.354745 -10.033827 41.878942 -52.005314 -0.148936 -0.258642 52.214815 38.780559 3.362414 -94.881010 54.423741 -37.913641 -112.374314 95.345971 -39.162756 -67.720913 89.865167 33.583717 -24.780614 6.670682 -0.445075 -37.306636 -137.191576 79.481424 -57.533416 177.962833 66.957890 172.430628 132.407108 76.833662 133.289572 -18.287406 -49.391669 10.046351 -6.256850 -38.701527 0.817471 0.567807 -0.350132 0.426792 93.722556 60.417545 18.126103 165.435640 49.049088 120.935314 -38.423678 -4.648755 -82.460455 81.764934 -32.343709 36.496478 -77.087921 -59.632745 -3.535354 -0.546975 -0.440704 0.477310 0.502631 0.486189 -0.577544 54.761477 55.900205 81.472733 41.207024 23.736684 151.194864 25.032422 -54.990137 63.103955 47.125136 6.573113 21.922180 93.016857 37.211386 124.069518 -0.621234 0.551974 -0.597870 -0.506601 -0.632883 -0.324159 
-0.118831 14.823832 57.055923 90.591301 -9.291623 -54.422093 -74.786902 -50.955379 36.414201 -6.574769 1.083646 -59.049691 -77.119778 67.465925 -46.893176 -11.097616 40.360900 -52.459849 -0.200520 -0.205147 52.235671 38.763631 3.536196 -94.773796 54.275404 -37.976922 -112.791402 95.516276 -39.999800 -68.009158 90.287174 33.114396 -23.794828 6.681070 -0.472194 -36.908007 -137.691467 79.192965 -58.211868 177.902330 66.884352 172.095582 132.732061 76.686370 133.702016 -18.388038 -48.259089 9.882380 -5.851032 -36.876972 -0.607229 0.592293 -0.367814 0.438068 93.341301 60.600235 17.812826 165.709291 49.096931 120.998535 -37.971718 -4.978429 -82.535965 78.418575 -32.497961 37.322472 -76.847336 -60.081346 -1.449441 -0.545674 -0.449071 0.453247 0.499040 0.497044 -0.585793 54.847570 55.963256 81.643222 41.197211 23.863867 150.975702 24.794827 -54.590328 63.525602 44.202523 6.185771 25.112278 93.854342 42.553871 120.687837 -0.624380 0.582107 -0.626114 -0.505550 -0.621927 -0.294637 
-0.123950 14.821827 57.058460 90.630462 -9.279520 -54.274248 -74.557230 -50.767895 36.328513 -6.259508 0.888015 -59.137496 -77.588804 67.334168 -47.869451 -10.452481 39.055063 -50.733998 -0.220219 -0.175194 52.255907 38.697067 3.631427 -94.781493 54.126691 -37.846124 -112.837098 95.107974 -40.278105 -68.312266 89.870550 33.754611 -22.331908 6.674499 -0.509873 -36.332654 -137.194755 79.179750 -57.566695 177.811919 66.669830 172.041348 134.351254 76.731537 135.521874 -17.060737 -48.028677 8.335307 -6.499700 -37.159122 -0.054416 0.593327 -0.340553 0.427137 93.605679 60.659328 17.784042 166.341603 49.163531 121.535491 -37.476603 -5.741500 -82.416799 78.754673 -34.277045 38.542875 -75.225168 -61.308281 -1.968296 -0.543588 -0.439846 0.476364 0.511377 0.496309 -0.585062 54.734945 56.121076 81.499546 41.501844 23.972027 150.541151 24.643739 -54.413897 64.065865 44.423539 5.168607 22.561300 98.095682 44.360454 124.952384 -0.623232 0.564110 -0.623009 -0.504728 -0.608629 -0.332795 
-0.129712 14.819313 57.060490 90.540155 -9.187422 -54.044640 -74.695892 -50.773820 36.619175 -5.963779 0.996089 -59.430649 -78.097922 67.457352 -48.227728 -8.301543 38.467351 -48.721764 -0.274652 -0.088790 52.387744 38.951386 3.699521 -94.807663 53.658067 -37.356713 -112.488986 94.900480 -40.198126 -68.711616 90.078055 34.073285 -21.657361 6.537779 -0.551332 -35.220754 -135.688115 79.214605 -55.985552 177.915249 66.643110 171.997096 134.987549 76.686711 136.149044 -15.861764 -48.177593 6.669230 -6.043880 -38.120629 1.147100 0.583857 -0.355814 0.424681 94.325106 60.708278 18.204572 166.522156 49.176823 122.012516 -37.093081 -6.867096 -82.387079 82.828425 -34.564913 35.748559 -75.245745 -62.161251 -3.469377 -0.545428 -0.453008 0.464989 0.515405 0.515721 -0.565191 54.761015 56.280253 81.626173 42.096897 24.239078 150.430263 25.336042 -54.396733 64.287124 47.236701 1.580323 21.049014 98.062228 39.636988 126.489841 -0.599721 0.580839 -0.602099 -0.494284 -0.646548 -0.317887 
-0.135979 14.816530 57.062576 90.505236 -9.127131 -53.809399 -74.932456 -50.916314 36.840901 -5.729188 1.218693 -59.624543 -78.712412 67.422548 -48.776165 -7.159012 38.814773 -48.468436 -0.314403 -0.059858 52.622472 39.273314 3.677880 -94.795493 53.433960 -36.989867 -112.252069 94.877935 -40.139968 -68.656081 89.876810 34.041662 -22.233796 6.471500 -0.610978 -34.232406 -135.958508 79.328417 -55.919222 178.306343 66.813163 172.535365 135.915652 76.950532 137.223039 -15.522761 -48.325876 6.203760 -4.433749 -37.891344 0.989494 0.611114 -0.383313 0.445715 95.214209 60.714480 18.872461 166.754369 49.114203 122.692970 -36.728966 -7.865902 -82.555099 86.680055 -35.435438 35.710552 -75.723470 -62.303358 -4.749608 -0.563822 -0.441276 0.485941 0.513277 0.470205 -0.584514 54.647241 56.397850 81.598880 42.646697 24.610598 150.565816 25.714605 -54.412063 64.664558 46.285963 0.068435 18.226512 102.341516 36.677210 129.470141 -0.622682 0.588313 -0.626130 -0.524112 -0.591701 -0.329609 
-0.142846 14.813923 57.066463 90.569826 -9.137675 -53.577767 -74.898148 -50.956616 36.602543 -5.467372 1.107024 -59.742268 -79.474739 67.772659 -49.677207 -8.032806 38.491088 -49.109201 -0.387868 -0.003133 52.895996 39.163835 3.895261 -94.991517 53.260463 -37.183703 -112.503224 95.050528 -40.335566 -68.931787 89.937071 33.907920 -22.874062 6.395758 -0.632030 -33.551450 -135.950787 78.922544 -55.745425 178.165665 66.791084 172.423375 136.890459 76.885008 138.362117 -15.361485 -47.573295 6.720542 -5.422193 -38.365799 1.601275 0.588107 -0.361375 0.436436 95.105310 60.700953 18.761329 166.985618 49.017558 122.986101 -36.439199 -8.305993 -82.973954 87.630346 -35.300131 36.391004 -73.605851 -61.287423 -7.973407 -0.557287 -0.462812 0.477072 0.495547 0.546418 -0.607092 54.719981 56.348184 81.802034 42.938636 24.863323 150.614995 25.365259 -54.006193 65.233409 41.102408 -1.275932 23.895358 102.344428 38.957812 128.063747 -0.635361 0.591105 -0.641625 -0.520354 -0.646435 -0.325725 
